<svg width="35" height="36" viewBox="0 0 35 36" fill="none" xmlns="http://www.w3.org/2000/svg">
<path d="M17.5 0.25C19.9609 0.25 22.1484 1.68555 23.2422 3.80469C25.498 3.05273 28.0273 3.59961 29.873 5.37695C31.6504 7.1543 32.1289 9.75195 31.4453 12.0078C33.5645 13.1016 35 15.2891 35 17.75C35 20.2793 33.5645 22.4668 31.4453 23.5605C32.1973 25.8164 31.6504 28.3457 29.873 30.123C28.0273 31.9004 25.498 32.4473 23.2422 31.7637C22.1484 33.8828 19.9609 35.25 17.5 35.25C14.9707 35.25 12.7832 33.8828 11.6895 31.7637C9.43359 32.4473 6.9043 31.9004 5.05859 30.123C3.28125 28.3457 2.80273 25.8164 3.48633 23.5605C1.36719 22.4668 0 20.2793 0 17.75C0 15.2891 1.36719 13.1016 3.48633 12.0078C2.73438 9.75195 3.28125 7.1543 5.05859 5.37695C6.9043 3.59961 9.43359 3.05273 11.6895 3.80469C12.7832 1.68555 14.9707 0.25 17.5 0.25ZM24.0625 15.6309C24.7461 15.0156 24.7461 13.9902 24.0625 13.3066C23.4473 12.6914 22.4219 12.6914 21.8066 13.3066L15.3125 19.8691L12.5781 17.1348C11.9629 16.5195 10.9375 16.5195 10.3223 17.1348C9.63867 17.8184 9.63867 18.8438 10.3223 19.459L14.1504 23.2871C14.7656 23.9707 15.791 23.9707 16.4062 23.2871L24.0625 15.6309Z" fill="url(#paint0_linear_346_316)"/>
<defs>
<linearGradient id="paint0_linear_346_316" x1="0" y1="0.25" x2="38.4236" y2="30.9675" gradientUnits="userSpaceOnUse">
<stop stop-color="#00FFBA"/>
<stop offset="1" stop-color="#006BE5"/>
</linearGradient>
</defs>
</svg>
