<svg width="41" height="35" viewBox="0 0 41 35" fill="none" xmlns="http://www.w3.org/2000/svg">
<path d="M39.5795 30.0781C40.8295 32.2656 39.267 35 36.6888 35H3.32947C0.751344 35 -0.811156 32.2656 0.438844 30.0781L17.1576 1.64062C18.4076 -0.546875 21.6107 -0.546875 22.9388 1.64062L39.5795 30.0781ZM18.1732 10.625V20.625C18.1732 21.7188 19.1107 22.5 20.0482 22.5C21.0638 22.5 21.9232 21.7188 21.9232 20.625V10.625C21.9232 9.60938 21.0638 8.75 20.0482 8.75C18.9545 8.75 18.1732 9.60938 18.1732 10.625ZM20.0482 30C21.3763 30 22.4701 28.9062 22.4701 27.5781C22.4701 26.25 21.3763 25.1562 20.0482 25.1562C18.642 25.1562 17.5482 26.25 17.5482 27.5781C17.5482 28.9062 18.642 30 20.0482 30Z" fill="url(#paint0_linear_198_371)"/>
<defs>
<linearGradient id="paint0_linear_198_371" x1="40.0483" y1="35.5" x2="0.0483397" y2="0.499996" gradientUnits="userSpaceOnUse">
<stop stop-color="#E67F06"/>
<stop offset="1" stop-color="#E8B911"/>
</linearGradient>
</defs>
</svg>
