<svg width="24" height="24" viewBox="0 0 24 24" fill="none" xmlns="http://www.w3.org/2000/svg">
<path d="M9.375 3.84375L8.95312 4.64062L8.0625 4.40625C7.03125 4.07812 5.90625 4.3125 5.10938 5.10938C4.26562 5.90625 4.03125 7.07812 4.35938 8.0625L4.64062 8.95312L3.79688 9.42188C2.85938 9.89062 2.25 10.875 2.25 12C2.25 13.1719 2.85938 14.1562 3.79688 14.625L4.64062 15.0469L4.35938 15.9375C4.03125 16.9688 4.26562 18.0938 5.0625 18.8906C5.85938 19.7344 7.03125 19.9688 8.0625 19.6406L8.95312 19.3594L9.375 20.2031C9.84375 21.1406 10.8281 21.75 11.9531 21.75C13.125 21.75 14.1094 21.1406 14.5781 20.2031L15 19.3594L15.8906 19.6406C16.9219 19.9688 18.0469 19.7344 18.8906 18.9375C19.6875 18.1406 19.9219 16.9688 19.5938 15.9375L19.3125 15.0469L20.1562 14.625C21.0938 14.1562 21.75 13.1719 21.75 12.0469C21.75 10.875 21.0938 9.89062 20.1562 9.42188L19.3594 9L19.5938 8.10938C19.9219 7.07812 19.6875 5.95312 18.8906 5.10938C18.0938 4.3125 16.9219 4.07812 15.9375 4.40625L15.0469 4.6875L14.5781 3.84375C14.1094 2.90625 13.125 2.25 12 2.25C10.8281 2.25 9.84375 2.90625 9.375 3.84375ZM12 0C13.6406 0 15.1406 0.796875 16.125 2.0625C17.6719 1.82812 19.2656 2.34375 20.4844 3.51562C21.6562 4.73438 22.125 6.32812 21.9375 7.875C23.2031 8.85938 24 10.3594 24 12C24 13.6875 23.2031 15.1875 21.9375 16.125C22.1719 17.6719 21.6562 19.3125 20.4844 20.4844C19.2656 21.7031 17.6719 22.1719 16.125 21.9844C15.1406 23.2031 13.6406 24 12 24C10.3125 24 8.8125 23.2031 7.875 21.9844C6.32812 22.1719 4.6875 21.7031 3.51562 20.5312C2.29688 19.3125 1.82812 17.7188 2.01562 16.1719C0.796875 15.1875 0 13.6875 0 12C0 10.3594 0.796875 8.85938 2.01562 7.875C1.82812 6.32812 2.29688 4.73438 3.46875 3.51562C4.6875 2.34375 6.28125 1.875 7.82812 2.0625C8.8125 0.796875 10.3125 0 12 0ZM10.5 16.5938L5.90625 12L7.5 10.4531L10.5 13.4531L16.5 7.45312L18.0938 9L10.5 16.5938Z" fill="white"/>
</svg>
